<svg width="256" height="132" viewBox="0 0 256 132" fill="none" xmlns="http://www.w3.org/2000/svg">
<g opacity="0.3">
<path d="M17.854 17.725L0.263031 0H0.196045V131.55L17.854 113.758V17.725Z" fill="url(#paint0_linear_729_13163)"/>
<path d="M17.8541 17.658H238.063L255.59 0H0.263062L17.8541 17.725V17.658Z" fill="url(#paint1_linear_729_13163)"/>
<path d="M17.854 17.7252V113.758V113.898H238.137H238.145V17.6582H238.063H17.854V17.7252Z" fill="#FCFCFA"/>
<path d="M255.804 0H255.59L238.063 17.658H238.145V113.898H238.137L255.663 131.556H255.804V0Z" fill="url(#paint2_linear_729_13163)"/>
<path d="M17.854 113.898V113.758L0.196045 131.55V131.556H255.663L238.137 113.898H17.854Z" fill="url(#paint3_linear_729_13163)"/>
<path d="M216.072 61.8464V39.7324H39.9281V76.8094C63.9511 73.0174 143.751 61.3914 216.072 61.8464Z" fill="#D1E1E5"/>
<path d="M39.9281 76.808V91.824H216.072V61.845C143.751 61.391 63.9511 73.017 39.9281 76.808Z" fill="#D1E1E5"/>
<path d="M71.8078 79V50.2H95.1478V79H90.3278V54.72H76.6278V79H71.8078ZM103.593 88.6L107.753 77.18L107.833 80.54L98.4131 57.4H103.433L110.113 74.52H108.833L115.333 57.4H120.153L108.113 88.6H103.593ZM131.735 79.6C129.508 79.6 127.608 79.1067 126.035 78.12C124.461 77.12 123.255 75.76 122.415 74.04C121.588 72.32 121.168 70.3733 121.155 68.2C121.168 65.9867 121.601 64.0267 122.455 62.32C123.321 60.6 124.548 59.2533 126.135 58.28C127.721 57.2933 129.608 56.8 131.795 56.8C134.248 56.8 136.321 57.42 138.015 58.66C139.721 59.8867 140.835 61.5667 141.355 63.7L136.555 65C136.181 63.84 135.561 62.94 134.695 62.3C133.828 61.6467 132.841 61.32 131.735 61.32C130.481 61.32 129.448 61.62 128.635 62.22C127.821 62.8067 127.221 63.62 126.835 64.66C126.448 65.7 126.255 66.88 126.255 68.2C126.255 70.2533 126.715 71.9133 127.635 73.18C128.555 74.4467 129.921 75.08 131.735 75.08C133.015 75.08 134.021 74.7867 134.755 74.2C135.501 73.6133 136.061 72.7667 136.435 71.66L141.355 72.76C140.688 74.96 139.521 76.6533 137.855 77.84C136.188 79.0133 134.148 79.6 131.735 79.6ZM150.626 79V61.68H143.406V57.4H162.666V61.68H155.446V79H150.626ZM175.606 79.6C173.446 79.6 171.559 79.1133 169.946 78.14C168.332 77.1667 167.079 75.8267 166.186 74.12C165.306 72.4 164.866 70.4267 164.866 68.2C164.866 65.9333 165.319 63.9467 166.226 62.24C167.132 60.5333 168.392 59.2 170.006 58.24C171.619 57.28 173.486 56.8 175.606 56.8C177.779 56.8 179.672 57.2867 181.286 58.26C182.899 59.2333 184.152 60.58 185.046 62.3C185.939 64.0067 186.386 65.9733 186.386 68.2C186.386 70.44 185.932 72.42 185.026 74.14C184.132 75.8467 182.879 77.1867 181.266 78.16C179.652 79.12 177.766 79.6 175.606 79.6ZM175.606 75.08C177.526 75.08 178.952 74.44 179.886 73.16C180.819 71.88 181.286 70.2267 181.286 68.2C181.286 66.1067 180.812 64.44 179.866 63.2C178.919 61.9467 177.499 61.32 175.606 61.32C174.312 61.32 173.246 61.6133 172.406 62.2C171.579 62.7733 170.966 63.58 170.566 64.62C170.166 65.6467 169.966 66.84 169.966 68.2C169.966 70.2933 170.439 71.9667 171.386 73.22C172.346 74.46 173.752 75.08 175.606 75.08Z" fill="#141212"/>
</g>
<defs>
<linearGradient id="paint0_linear_729_13163" x1="18.8843" y1="65.7747" x2="3.87194" y2="65.7747" gradientUnits="userSpaceOnUse">
<stop stop-color="#4D4D4D"/>
<stop offset="1"/>
</linearGradient>
<linearGradient id="paint1_linear_729_13163" x1="127.926" y1="-0.8831" x2="127.926" y2="20.3257" gradientUnits="userSpaceOnUse">
<stop stop-color="#4D4D4D"/>
<stop offset="1"/>
</linearGradient>
<linearGradient id="paint2_linear_729_13163" x1="238.063" y1="65.7779" x2="255.804" y2="65.7779" gradientUnits="userSpaceOnUse">
<stop stop-color="#4D4D4D"/>
<stop offset="1"/>
</linearGradient>
<linearGradient id="paint3_linear_729_13163" x1="127.93" y1="133.616" x2="127.93" y2="114.484" gradientUnits="userSpaceOnUse">
<stop stop-color="#4D4D4D"/>
<stop offset="1"/>
</linearGradient>
</defs>
</svg>
