<svg width="24" height="24" viewBox="0 0 24 24" fill="none" xmlns="http://www.w3.org/2000/svg">
<path d="M12.5625 12.0625H12.0625V12.5625V20.25C12.0625 20.2666 12.0559 20.2825 12.0442 20.2942L12.3977 20.6477L12.0442 20.2942C12.0325 20.3059 12.0166 20.3125 12 20.3125C11.9834 20.3125 11.9675 20.3059 11.9558 20.2942L11.6023 20.6477L11.9558 20.2942C11.9441 20.2825 11.9375 20.2666 11.9375 20.25V12.5625V12.0625H11.4375H3.75C3.73342 12.0625 3.71753 12.0559 3.70581 12.0442C3.69409 12.0325 3.6875 12.0166 3.6875 12C3.6875 11.9834 3.69408 11.9675 3.70581 11.9558C3.71753 11.9441 3.73342 11.9375 3.75 11.9375H11.4375H11.9375V11.4375V3.75C11.9375 3.73342 11.9441 3.71753 11.9558 3.70581C11.9675 3.69408 11.9834 3.6875 12 3.6875C12.0166 3.6875 12.0325 3.69409 12.0442 3.70581C12.0559 3.71753 12.0625 3.73342 12.0625 3.75V11.4375V11.9375H12.5625H20.25C20.2666 11.9375 20.2825 11.9441 20.2942 11.9558L20.6477 11.6023L20.2942 11.9558C20.3059 11.9675 20.3125 11.9834 20.3125 12C20.3125 12.0166 20.3059 12.0325 20.2942 12.0442L20.6477 12.3977L20.2942 12.0442C20.2825 12.0559 20.2666 12.0625 20.25 12.0625H12.5625Z" fill="#141212" stroke="white"/>
</svg>
