<svg width="449" height="325" viewBox="0 0 449 325" fill="none" xmlns="http://www.w3.org/2000/svg">
<path d="M90.678 254V222.465H11.9V202.354L68.425 82.64H92.463L35.938 202.354H90.678V154.159H112.098V202.354H129.948V222.465H112.098V254H90.678Z" fill="url(#paint0_linear_729_13407)"/>
<path d="M224.28 74.1055C178.838 74.1055 142 113.682 142 162.502C142 211.321 178.838 250.897 224.28 250.897C269.722 250.897 306.56 211.321 306.56 162.502C306.56 113.681 269.722 74.1055 224.28 74.1055ZM224.28 230.59C189.277 230.59 160.901 200.106 160.901 162.502C160.901 124.897 189.277 94.4125 224.28 94.4125C259.283 94.4125 287.659 124.896 287.659 162.502C287.658 200.105 259.282 230.59 224.28 230.59Z" fill="url(#paint1_linear_729_13407)"/>
<path d="M224.28 94.4141C189.277 94.4141 160.901 124.898 160.901 162.504C160.901 200.108 189.277 230.592 224.28 230.592C259.283 230.592 287.659 200.108 287.659 162.504C287.658 124.898 259.282 94.4141 224.28 94.4141ZM224.28 213.867C197.875 213.867 176.468 190.871 176.468 162.504C176.468 134.135 197.874 111.139 224.28 111.139C250.685 111.139 272.091 134.135 272.091 162.504C272.091 190.871 250.685 213.867 224.28 213.867Z" fill="#FCFCFA"/>
<path d="M270.557 149.557C265.216 127.455 246.523 111.137 224.28 111.137C197.875 111.137 176.468 134.133 176.468 162.502C176.468 165.357 176.695 168.154 177.112 170.883C190.548 159.522 220.221 142.081 270.557 149.557Z" fill="#D1E1E5"/>
<path d="M177.112 170.882C180.839 195.261 200.532 213.864 224.28 213.864C250.685 213.864 272.091 190.868 272.091 162.501C272.091 158.029 271.557 153.691 270.557 149.556C220.221 142.079 190.548 159.52 177.112 170.882Z" fill="#D1E1E5"/>
<path d="M397.238 254V222.465H318.46V202.354L374.985 82.64H399.023L342.498 202.354H397.238V154.159H418.658V202.354H436.508V222.465H418.658V254H397.238Z" fill="url(#paint2_linear_729_13407)"/>
<defs>
<linearGradient id="paint0_linear_729_13407" x1="142" y1="162.5" x2="0" y2="162.5" gradientUnits="userSpaceOnUse">
<stop/>
<stop offset="1" stop-color="#4D4D4D"/>
</linearGradient>
<linearGradient id="paint1_linear_729_13407" x1="141.999" y1="162.501" x2="306.56" y2="162.501" gradientUnits="userSpaceOnUse">
<stop stop-color="#4D4D4D"/>
<stop offset="1"/>
</linearGradient>
<linearGradient id="paint2_linear_729_13407" x1="448.56" y1="162.5" x2="306.56" y2="162.5" gradientUnits="userSpaceOnUse">
<stop/>
<stop offset="1" stop-color="#4D4D4D"/>
</linearGradient>
</defs>
</svg>
