<svg width="24" height="24" viewBox="0 0 24 24" fill="none" xmlns="http://www.w3.org/2000/svg">
<g clip-path="url(#clip0_1444_10597)">
<path d="M12.02 0.5C5.66096 0.5 0.5 5.66096 0.5 12.02C0.5 18.379 5.66096 23.54 12.02 23.54C18.379 23.54 23.54 18.379 23.54 12.02C23.54 5.66096 18.379 0.5 12.02 0.5ZM17.3653 8.3336C17.1925 10.1538 16.4437 14.5774 16.0635 16.6165C15.9022 17.4805 15.5797 17.7685 15.2802 17.803C14.612 17.8606 14.1051 17.3653 13.46 16.939C12.4462 16.2709 11.8702 15.8562 10.891 15.211C9.75056 14.4622 10.4878 14.0475 11.1445 13.3794C11.3173 13.2066 14.2664 10.5224 14.324 10.2805C14.332 10.2438 14.3309 10.2058 14.3209 10.1697C14.3109 10.1335 14.2922 10.1004 14.2664 10.0731C14.1973 10.0155 14.1051 10.0386 14.0245 10.0501C13.9208 10.0731 12.308 11.1445 9.16304 13.2642C8.70224 13.5752 8.28752 13.7365 7.91888 13.725C7.50416 13.7134 6.7208 13.4946 6.13328 13.2987C5.40752 13.0683 4.84304 12.9416 4.88912 12.5384C4.91216 12.331 5.20016 12.1237 5.7416 11.9048C9.10544 10.4418 11.3403 9.47408 12.4578 9.01328C15.6603 7.67696 16.317 7.44656 16.7547 7.44656C16.8469 7.44656 17.0658 7.4696 17.204 7.5848C17.3192 7.67696 17.3538 7.80368 17.3653 7.89584C17.3538 7.96496 17.3768 8.17232 17.3653 8.3336Z" fill="#141212"/>
</g>
<defs>
<clipPath id="clip0_1444_10597">
<rect width="24" height="24" fill="white"/>
</clipPath>
</defs>
</svg>
